# xmcd
#
# Track frame offsets:
#	150
#	4900
#	8992
#	13687
#	19120
#	22737
#	26935
#	29887
#	34047
#	43012
#	48540
#	56337
#	59865
#	64580
#	70165
#	79300
#	88312
#	93975
#	96807
#	100562
#	106512
#	111150
#	116072
#	125470
#	130442
#	136607
#	145260
#	151992
#	159250
#	163022
#	174385
#	186337
#	195475
#	204542
#	211312
#	220270
#	227925
#	234137
#	241707
#
# Disc length: 3299 seconds
#
# Revision: 1
# Processed by: cddbd v1.5.1PL0 Copyright (c) Steve Scherf et al.
# Submitted via: CDex 1.50Beta5
#
DISCID=140ce127
DTITLE=黒田久美子・他 - 英語のうたカード
DYEAR=1900
DGENRE=(Doyo)
TTITLE0=The Alphabet Song
TTITLE1=Seven Steps
TTITLE2=1.2.3.4.5.Clap!Clap!
TTITLE3=Good Morning
TTITLE4=Hello,Hello
TTITLE5=How Are You,My Friend?
TTITLE6=Mother Finger
TTITLE7=Head shoulders Knees and Clap!
TTITLE8=Where is Thumbkin?
TTITLE9=Blue-Bird
TTITLE10=Are You Sleeping?
TTITLE11=Lazy Mary
TTITLE12=Cuckoo
TTITLE13=Close and Open Your Hands
TTITLE14=Ten Little Pumpkins
TTITLE15=Red Is An Apple
TTITLE16=Colors
TTITLE17=Sunday,Monday,Tuesday
TTITLE18=Row,Row,Row Your Boat
TTITLE19=Teddy Bear
TTITLE20='Round the Village
TTITLE21=A-Tisket,A-Tasket
TTITLE22=Bingo
TTITLE23=Hickory,Dickory,Dock
TTITLE24=Ring-a-Ring o' Roses
TTITLE25=Old MacDonald
TTITLE26=Mary Had A Little Lamb
TTITLE27=London Bridge
TTITLE28=The Muffin Man
TTITLE29=Twinkle,Twinkle,Little Star
TTITLE30=The Hokey-Pokey
TTITLE31=Tick-Tock
TTITLE32=The Weather Song
TTITLE33=Big,Little
TTITLE34=I Do,I Do
TTITLE35=This Pig Went to Market
TTITLE36=Six Little Ducks
TTITLE37=The Farmer In The Dell
TTITLE38=We Wish You A Merry Christmas
EXTD=
EXTT0=
EXTT1=
EXTT2=
EXTT3=
EXTT4=
EXTT5=
EXTT6=
EXTT7=
EXTT8=
EXTT9=
EXTT10=
EXTT11=
EXTT12=
EXTT13=
EXTT14=
EXTT15=
EXTT16=
EXTT17=
EXTT18=
EXTT19=
EXTT20=
EXTT21=
EXTT22=
EXTT23=
EXTT24=
EXTT25=
EXTT26=
EXTT27=
EXTT28=
EXTT29=
EXTT30=
EXTT31=
EXTT32=
EXTT33=
EXTT34=
EXTT35=
EXTT36=
EXTT37=
EXTT38=
PLAYORDER=
